#Comment line ignore any data following # character 
#Hierarchical Translation and Rotation (.htr) file 
[Header]	
#Header keywords are followed by a single value 
FileType HTR		#Single word string
DataType HTRS		#Translation followed by rotation and scale data
FileVersion 1		#integer
NumSegments 84		#integer
NumFrames 2		#integer
DataFrameRate 30		#integer, data frame rate in this file
EulerRotationOrder ZYX
CalibrationUnits mm
RotationUnits Degrees
GlobalAxisofGravity Y
BoneLengthAxis Y
ScaleFactor 1.00
[SegmentNames&Hierarchy]
#CHILD	PARENT
MASTER GLOBAL
root MASTER
chest root
L_mid_tent01 root
R_mid_tent01 root
spine01 root
Bip01_Neck chest
L_humerus chest
R_humerus chest
weapon_bone chest
Bip01_Head Bip01_Neck
eye_left_bone Bip01_Head
eye_right_bone Bip01_Head
L_forearm L_humerus
L_front_hand L_forearm
L_weapon_bone L_forearm
L_front_hand01_01 L_front_hand
L_front_hand02_01 L_front_hand
L_front_hand03_01 L_front_hand
L_front_hand01_02 L_front_hand01_01
L_front_hand02_02 L_front_hand02_01
L_front_hand03_02 L_front_hand03_01
R_forearm R_humerus
R_front_hand R_forearm
R_weapon_bone R_forearm
R_front_hand01_01 R_front_hand
R_front_hand02_01 R_front_hand
R_front_hand03_01 R_front_hand
R_front_hand01_02 R_front_hand01_01
R_front_hand02_02 R_front_hand02_01
R_front_hand03_02 R_front_hand03_01
null_rope01_connect L_mid_tent01
Rope1_Seg01 null_rope01_connect
Rope1_Seg02 Rope1_Seg01
Rope1_Seg03 Rope1_Seg02
Rope1_Seg04 Rope1_Seg03
Rope1_Seg05 Rope1_Seg04
Rope1_Seg06 Rope1_Seg05
Rope1_Seg07 Rope1_Seg06
Rope1_Seg09 Rope1_Seg07
L_mid_hand01 Rope1_Seg09
L_mid_hand02 Rope1_Seg09
L_mid_hand03 Rope1_Seg09
null_rope02_connect R_mid_tent01
Rope2_Seg01 null_rope02_connect
Rope2_Seg02 Rope2_Seg01
Rope2_Seg03 Rope2_Seg02
Rope2_Seg04 Rope2_Seg03
Rope2_Seg05 Rope2_Seg04
Rope2_Seg06 Rope2_Seg05
Rope2_Seg07 Rope2_Seg06
Rope2_Seg09 Rope2_Seg07
R_mid_hand01 Rope2_Seg09
R_mid_hand02 Rope2_Seg09
R_mid_hand03 Rope2_Seg09
spine02 spine01
spine03 spine02
pelvis spine03
null_rope03_connect pelvis
null_rope04_connect pelvis
Rope3_Seg01 null_rope03_connect
Rope3_Seg02 Rope3_Seg01
Rope3_Seg03 Rope3_Seg02
Rope3_Seg04 Rope3_Seg03
Rope3_Seg05 Rope3_Seg04
Rope3_Seg06 Rope3_Seg05
Rope3_Seg07 Rope3_Seg06
Rope3_Seg08 Rope3_Seg07
Rope3_Seg09 Rope3_Seg08
R_rear_hand01 Rope3_Seg09
R_rear_hand02 Rope3_Seg09
R_rear_hand03 Rope3_Seg09
Rope4_Seg01 null_rope04_connect
Rope4_Seg02 Rope4_Seg01
Rope4_Seg03 Rope4_Seg02
Rope4_Seg04 Rope4_Seg03
Rope4_Seg05 Rope4_Seg04
Rope4_Seg06 Rope4_Seg05
Rope4_Seg07 Rope4_Seg06
Rope4_Seg08 Rope4_Seg07
Rope4_Seg09 Rope4_Seg08
L_rear_hand01 Rope4_Seg09
L_rear_hand02 Rope4_Seg09
L_rear_hand03 Rope4_Seg09
[BasePosition]
#SegmentName Tx, Ty, Tz, Rx, Ry, Rz, BoneLength
MASTER 0.000000 0.000000 0.000000 -90.000000 0.000000 0.000000 10.000000 
root 0.000000 0.000000 0.000000 0.000000 0.000000 0.000000 10.000000 
chest 0.000000 0.000000 0.000000 0.000000 0.000000 0.000000 10.000000 
L_mid_tent01 0.000000 0.000000 0.000000 0.000000 0.000000 0.000000 10.000000 
R_mid_tent01 0.000000 0.000000 0.000000 0.000000 0.000000 0.000000 10.000000 
spine01 0.000000 0.000000 0.000000 0.000000 0.000000 0.000000 10.000000 
Bip01_Neck 0.000000 0.000000 0.000000 0.000000 0.000000 0.000000 10.000000 
L_humerus 0.000000 0.000000 0.000000 0.000000 0.000000 0.000000 10.000000 
R_humerus 0.000000 0.000000 0.000000 0.000000 0.000000 0.000000 10.000000 
weapon_bone 0.000000 0.000000 0.000000 0.000000 0.000000 0.000000 10.000000 
Bip01_Head 0.000000 0.000000 0.000000 0.000000 0.000000 0.000000 10.000000 
eye_left_bone 0.000000 0.000000 0.000000 0.000000 0.000000 0.000000 10.000000 
eye_right_bone 0.000000 0.000000 0.000000 0.000000 0.000000 0.000000 10.000000 
L_forearm 0.000000 0.000000 0.000000 0.000000 0.000000 0.000000 10.000000 
L_front_hand 0.000000 0.000000 0.000000 0.000000 0.000000 0.000000 10.000000 
L_weapon_bone 0.000000 0.000000 0.000000 0.000000 0.000000 0.000000 10.000000 
L_front_hand01_01 0.000000 0.000000 0.000000 0.000000 0.000000 0.000000 10.000000 
L_front_hand02_01 0.000000 0.000000 0.000000 0.000000 0.000000 0.000000 10.000000 
L_front_hand03_01 0.000000 0.000000 0.000000 0.000000 0.000000 0.000000 10.000000 
L_front_hand01_02 0.000000 0.000000 0.000000 0.000000 0.000000 0.000000 10.000000 
L_front_hand02_02 0.000000 0.000000 0.000000 0.000000 0.000000 0.000000 10.000000 
L_front_hand03_02 0.000000 0.000000 0.000000 0.000000 0.000000 0.000000 10.000000 
R_forearm 0.000000 0.000000 0.000000 0.000000 0.000000 0.000000 10.000000 
R_front_hand 0.000000 0.000000 0.000000 0.000000 0.000000 0.000000 10.000000 
R_weapon_bone 0.000000 0.000000 0.000000 0.000000 0.000000 0.000000 10.000000 
R_front_hand01_01 0.000000 0.000000 0.000000 0.000000 0.000000 0.000000 10.000000 
R_front_hand02_01 0.000000 0.000000 0.000000 0.000000 0.000000 0.000000 10.000000 
R_front_hand03_01 0.000000 0.000000 0.000000 0.000000 0.000000 0.000000 10.000000 
R_front_hand01_02 0.000000 0.000000 0.000000 0.000000 0.000000 0.000000 10.000000 
R_front_hand02_02 0.000000 0.000000 0.000000 0.000000 0.000000 0.000000 10.000000 
R_front_hand03_02 0.000000 0.000000 0.000000 0.000000 0.000000 0.000000 10.000000 
null_rope01_connect 0.000000 0.000000 0.000000 0.000000 0.000000 0.000000 10.000000 
Rope1_Seg01 0.000000 0.000000 0.000000 0.000000 0.000000 0.000000 10.000000 
Rope1_Seg02 0.000000 0.000000 0.000000 0.000000 0.000000 0.000000 10.000000 
Rope1_Seg03 0.000000 0.000000 0.000000 0.000000 0.000000 0.000000 10.000000 
Rope1_Seg04 0.000000 0.000000 0.000000 0.000000 0.000000 0.000000 10.000000 
Rope1_Seg05 0.000000 0.000000 0.000000 0.000000 0.000000 0.000000 10.000000 
Rope1_Seg06 0.000000 0.000000 0.000000 0.000000 0.000000 0.000000 10.000000 
Rope1_Seg07 0.000000 0.000000 0.000000 0.000000 0.000000 0.000000 10.000000 
Rope1_Seg09 0.000000 0.000000 0.000000 0.000000 0.000000 0.000000 10.000000 
L_mid_hand01 0.000000 0.000000 0.000000 0.000000 0.000000 0.000000 10.000000 
L_mid_hand02 0.000000 0.000000 0.000000 0.000000 0.000000 0.000000 10.000000 
L_mid_hand03 0.000000 0.000000 0.000000 0.000000 0.000000 0.000000 10.000000 
null_rope02_connect 0.000000 0.000000 0.000000 0.000000 0.000000 0.000000 10.000000 
Rope2_Seg01 0.000000 0.000000 0.000000 0.000000 0.000000 0.000000 10.000000 
Rope2_Seg02 0.000000 0.000000 0.000000 0.000000 0.000000 0.000000 10.000000 
Rope2_Seg03 0.000000 0.000000 0.000000 0.000000 0.000000 0.000000 10.000000 
Rope2_Seg04 0.000000 0.000000 0.000000 0.000000 0.000000 0.000000 10.000000 
Rope2_Seg05 0.000000 0.000000 0.000000 0.000000 0.000000 0.000000 10.000000 
Rope2_Seg06 0.000000 0.000000 0.000000 0.000000 0.000000 0.000000 10.000000 
Rope2_Seg07 0.000000 0.000000 0.000000 0.000000 0.000000 0.000000 10.000000 
Rope2_Seg09 0.000000 0.000000 0.000000 0.000000 0.000000 0.000000 10.000000 
R_mid_hand01 0.000000 0.000000 0.000000 0.000000 0.000000 0.000000 10.000000 
R_mid_hand02 0.000000 0.000000 0.000000 0.000000 0.000000 0.000000 10.000000 
R_mid_hand03 0.000000 0.000000 0.000000 0.000000 0.000000 0.000000 10.000000 
spine02 0.000000 0.000000 0.000000 0.000000 0.000000 0.000000 10.000000 
spine03 0.000000 0.000000 0.000000 0.000000 0.000000 0.000000 10.000000 
pelvis 0.000000 0.000000 0.000000 0.000000 0.000000 0.000000 10.000000 
null_rope03_connect 0.000000 0.000000 0.000000 0.000000 0.000000 0.000000 10.000000 
null_rope04_connect 0.000000 0.000000 0.000000 0.000000 0.000000 0.000000 10.000000 
Rope3_Seg01 0.000000 0.000000 0.000000 0.000000 0.000000 0.000000 10.000000 
Rope3_Seg02 0.000000 0.000000 0.000000 0.000000 0.000000 0.000000 10.000000 
Rope3_Seg03 0.000000 0.000000 0.000000 0.000000 0.000000 0.000000 10.000000 
Rope3_Seg04 0.000000 0.000000 0.000000 0.000000 0.000000 0.000000 10.000000 
Rope3_Seg05 0.000000 0.000000 0.000000 0.000000 0.000000 0.000000 10.000000 
Rope3_Seg06 0.000000 0.000000 0.000000 0.000000 0.000000 0.000000 10.000000 
Rope3_Seg07 0.000000 0.000000 0.000000 0.000000 0.000000 0.000000 10.000000 
Rope3_Seg08 0.000000 0.000000 0.000000 0.000000 0.000000 0.000000 10.000000 
Rope3_Seg09 0.000000 0.000000 0.000000 0.000000 0.000000 0.000000 10.000000 
R_rear_hand01 0.000000 0.000000 0.000000 0.000000 0.000000 0.000000 10.000000 
R_rear_hand02 0.000000 0.000000 0.000000 0.000000 0.000000 0.000000 10.000000 
R_rear_hand03 0.000000 0.000000 0.000000 0.000000 0.000000 0.000000 10.000000 
Rope4_Seg01 0.000000 0.000000 0.000000 0.000000 0.000000 0.000000 10.000000 
Rope4_Seg02 0.000000 0.000000 0.000000 0.000000 0.000000 0.000000 10.000000 
Rope4_Seg03 0.000000 0.000000 0.000000 0.000000 0.000000 0.000000 10.000000 
Rope4_Seg04 0.000000 0.000000 0.000000 0.000000 0.000000 0.000000 10.000000 
Rope4_Seg05 0.000000 0.000000 0.000000 0.000000 0.000000 0.000000 10.000000 
Rope4_Seg06 0.000000 0.000000 0.000000 0.000000 0.000000 0.000000 10.000000 
Rope4_Seg07 0.000000 0.000000 0.000000 0.000000 0.000000 0.000000 10.000000 
Rope4_Seg08 0.000000 0.000000 0.000000 0.000000 0.000000 0.000000 10.000000 
Rope4_Seg09 0.000000 0.000000 0.000000 0.000000 0.000000 0.000000 10.000000 
L_rear_hand01 0.000000 0.000000 0.000000 0.000000 0.000000 0.000000 10.000000 
L_rear_hand02 0.000000 0.000000 0.000000 0.000000 0.000000 0.000000 10.000000 
L_rear_hand03 0.000000 0.000000 0.000000 0.000000 0.000000 0.000000 10.000000 
#Beginning of Data. Separated by tabs
#Fr	Tx	Ty	Tz	Rx	Ry	Rz	SF
[MASTER]
27 -115.823105 4074.579834 451.962372 0.001660 0.001660 0.001660 4101.205078
28 -115.823105 4095.527100 352.516327 0.001660 0.001660 0.001660 4112.301758
[root]
27 2.696667 444.668884 1104.892578 -96.257980 -36.828545 -86.960831 1191.018677
28 2.696667 444.668884 1104.892578 -96.235016 -37.029194 -86.953636 1191.018677
[chest]
27 -84.512650 -34.090519 0.000000 -11.031086 -26.692379 149.404221 91.129311
28 -84.512650 -34.090519 0.000000 -11.394957 -27.172190 149.796570 91.129311
[L_mid_tent01]
27 27.299150 22.179039 -249.918701 -0.160262 22.398882 77.273643 252.381683
28 27.299152 22.179037 -249.918701 -0.201984 26.715935 74.172096 252.381683
[R_mid_tent01]
27 23.228794 24.509907 226.238495 130.293945 -43.039749 66.111450 228.744751
28 23.228794 24.509907 226.238495 139.759232 -41.187637 63.448578 228.744751
[spine01]
27 -0.361383 -0.195265 0.000000 -0.000001 -0.000007 22.052340 0.410763
28 -0.361383 -0.195265 0.000000 -0.000001 -0.000007 22.052340 0.410763
[Bip01_Neck]
27 165.484543 71.581718 0.000119 176.643677 -1.657966 43.431908 180.302734
28 165.484543 71.581718 0.000119 176.643677 -1.657967 43.431911 180.302734
[L_humerus]
27 -13.983130 -135.272980 -120.471481 171.974060 11.375091 -91.228027 181.680161
28 -13.983130 -135.272980 -120.471481 170.349945 34.299919 -95.154655 181.680161
[R_humerus]
27 -13.983309 -135.273102 125.287651 -176.936310 -7.601824 -86.014778 184.909012
28 -13.983309 -135.273102 125.287651 -176.338730 -30.525194 -87.535629 184.909012
[weapon_bone]
27 235.964890 -300.705902 0.000000 0.000000 -89.951546 -128.212341 382.234833
28 235.964890 -300.705902 0.000000 0.000000 -89.951546 -128.212341 382.234833
[Bip01_Head]
27 213.417282 185.771484 10.763740 37.083313 15.289881 -42.903267 283.149841
28 213.426346 185.752869 11.101494 35.838017 14.913116 -43.225376 283.157532
[eye_left_bone]
27 -24.626970 125.451866 -64.772606 0.000000 -90.000000 -99.840431 143.318359
28 -24.626970 125.451866 -64.772606 0.000000 -90.000000 -99.840431 143.318359
[eye_right_bone]
27 -24.626970 125.451866 64.327362 0.000000 -89.965736 80.156380 143.117676
28 -24.626970 125.451866 64.327362 0.000000 -89.965736 80.156380 143.117676
[L_forearm]
27 322.776093 0.000000 -0.000119 0.000382 -0.002316 -108.709480 322.776093
28 322.776093 0.000000 -0.000119 0.000375 -0.002317 -108.411003 322.776093
[L_front_hand]
27 241.149185 -0.042021 -3.300071 108.935295 -1.835379 -27.421946 241.171753
28 241.149185 -0.042021 -3.300071 81.912018 -1.835664 -27.422117 241.171753
[L_weapon_bone]
27 156.183838 0.000000 0.000000 0.000014 0.000007 0.000001 156.183838
28 156.183838 0.000000 0.000000 0.000014 0.000007 0.000001 156.183838
[L_front_hand01_01]
27 86.095154 20.947098 -0.655860 0.298027 -0.519562 7.880116 88.609184
28 86.095154 20.947098 -0.655860 0.024428 -0.599225 35.383247 88.609184
[L_front_hand02_01]
27 86.935165 -11.437475 24.513514 117.152168 -7.511168 -4.182455 91.046425
28 86.935165 -11.437475 24.513514 122.069237 -31.551823 -18.500204 91.046425
[L_front_hand03_01]
27 86.637497 -14.123976 -20.424902 -118.509918 6.338694 -6.104538 90.126129
28 86.637497 -14.123976 -20.424902 -123.245262 30.081028 -20.858690 90.126129
[L_front_hand01_02]
27 71.020905 -0.000179 0.000030 0.001534 0.001777 -8.378850 71.020905
28 71.020905 -0.000179 0.000030 0.001531 0.001780 -8.602017 71.020905
[L_front_hand02_02]
27 71.020927 -0.000119 0.000060 0.001534 0.001777 -8.378850 71.020927
28 71.020927 -0.000119 0.000060 0.001531 0.001780 -8.602017 71.020927
[L_front_hand03_02]
27 71.020905 -0.000060 0.000060 0.001534 0.001777 -8.378850 71.020905
28 71.020905 -0.000060 0.000060 0.001531 0.001780 -8.602017 71.020905
[R_forearm]
27 322.776428 -0.000060 0.000030 0.206274 0.061692 -107.750862 322.776428
28 322.776428 -0.000060 0.000030 0.206431 0.061162 -107.456688 322.776428
[R_front_hand]
27 238.847015 -0.006795 2.210259 -110.180199 -10.645726 -26.313110 238.857239
28 238.847015 -0.006795 2.210259 -71.900841 -10.646342 -26.312891 238.857239
[R_weapon_bone]
27 155.664093 0.002503 -0.000030 0.003487 0.001180 -90.988930 155.664078
28 155.664093 0.002503 -0.000030 0.003487 0.001180 -90.988930 155.664078
[R_front_hand01_01]
27 87.624611 14.231146 22.918642 -117.163483 -7.643627 4.362266 91.683487
28 87.624611 14.231146 22.918642 -122.120834 -31.678434 18.703474 91.683487
[R_front_hand02_01]
27 89.356956 14.367283 -19.491137 118.548958 6.742043 6.564324 92.579636
28 89.356956 14.367283 -19.491137 123.407410 30.459038 21.396713 92.579636
[R_front_hand03_01]
27 87.286232 -22.307278 -0.143439 -0.328018 -0.309644 -8.268888 90.091743
28 87.286232 -22.307278 -0.143439 -0.148760 -0.428744 -35.769218 90.091743
[R_front_hand01_02]
27 71.020905 0.000060 0.000119 0.001778 0.001532 8.496235 71.020905
28 71.020905 0.000060 0.000119 0.001783 0.001527 8.843431 71.020905
[R_front_hand02_02]
27 71.020844 -0.000030 -0.000119 0.001778 0.001532 8.496235 71.020836
28 71.020844 -0.000030 -0.000119 0.001783 0.001527 8.843431 71.020836
[R_front_hand03_02]
27 71.020905 0.000000 0.000030 0.001778 0.001532 8.496235 71.020905
28 71.020905 0.000000 0.000030 0.001783 0.001527 8.843431 71.020905
[null_rope01_connect]
27 328.732483 0.000000 -0.000238 -137.563248 -63.591137 -172.117950 328.732483
28 328.732483 0.000000 -0.000238 -133.544418 -59.499676 -172.670639 328.732483
[Rope1_Seg01]
27 0.000043 -0.000290 0.000000 -18.734180 -8.822834 174.958145 0.000293
28 0.000041 -0.000300 0.000000 -16.107494 -2.626344 174.847031 0.000303
[Rope1_Seg02]
27 139.999863 -0.000179 0.000000 15.723062 12.686528 21.170744 139.999863
28 139.999863 -0.000179 0.000000 15.176979 13.461158 22.103226 139.999863
[Rope1_Seg03]
27 139.999924 0.000060 -0.000060 8.065719 14.910530 5.449957 139.999924
28 139.999924 0.000060 -0.000060 5.384636 10.784286 3.877571 139.999924
[Rope1_Seg04]
27 139.999924 -0.000060 -0.000119 18.283195 16.243235 25.580439 139.999924
28 139.999924 -0.000060 -0.000119 23.524755 17.674656 32.456978 139.999924
[Rope1_Seg05]
27 139.999832 0.000119 -0.000060 35.828548 29.270971 41.042645 139.999832
28 139.999832 0.000119 -0.000060 31.155382 29.632076 33.991680 139.999832
[Rope1_Seg06]
27 139.999954 0.000119 -0.000060 5.204938 12.177239 5.124045 139.999954
28 139.999954 0.000119 -0.000060 4.016955 10.213067 3.893890 139.999954
[Rope1_Seg07]
27 139.999985 0.000060 0.000000 1.651138 5.376084 1.698430 139.999985
28 139.999985 0.000060 0.000000 1.461545 4.886079 1.494781 139.999985
[Rope1_Seg09]
27 121.602913 0.000119 -0.000089 -89.793175 -1.359789 0.847147 121.602913
28 121.602913 0.000119 -0.000089 -89.793175 -1.359789 0.847147 121.602913
[L_mid_hand01]
27 103.859421 1.038730 8.195221 130.544403 -67.584549 -38.866970 104.187431
28 103.859421 1.038730 8.195221 130.544373 -67.584534 -38.866943 104.187431
[L_mid_hand02]
27 105.572853 -4.139662 -10.864139 -168.923172 43.409317 -73.498909 106.211075
28 105.572853 -4.139662 -10.864139 -168.923172 43.409302 -73.498894 106.211075
[L_mid_hand03]
27 104.641464 17.579376 -3.913581 -6.012628 17.808174 74.893669 106.179977
28 104.641464 17.579376 -3.913581 -6.012627 17.808174 74.893669 106.179977
[null_rope02_connect]
27 328.732849 0.000179 -0.000119 -56.833618 26.162138 44.438473 328.732849
28 328.732849 0.000179 -0.000119 -60.944759 33.405540 42.179508 328.732849
[Rope2_Seg01]
27 0.000095 0.000333 0.000000 80.942795 19.776159 10.449028 0.000346
28 0.000095 0.000341 0.000000 75.401688 26.018063 5.559017 0.000354
[Rope2_Seg02]
27 139.999741 -0.000060 -0.000119 -4.832394 -6.949573 -8.530900 139.999756
28 139.999741 -0.000060 -0.000119 -4.026797 -6.067149 -6.851160 139.999756
[Rope2_Seg03]
27 140.000107 0.000030 0.000000 -8.031414 -9.151079 -14.393174 140.000107
28 140.000107 0.000030 0.000000 -6.535566 -8.092918 -10.756890 140.000107
[Rope2_Seg04]
27 139.999802 0.000000 -0.000060 -9.874066 -7.604467 -20.737581 139.999802
28 139.999802 0.000000 -0.000060 -9.908062 -8.352366 -18.485901 139.999802
[Rope2_Seg05]
27 139.999985 -0.000060 0.000119 -7.087469 -8.051075 -15.029727 139.999985
28 139.999985 -0.000060 0.000119 -7.676015 -6.278497 -15.227856 139.999985
[Rope2_Seg06]
27 139.999893 -0.000030 -0.000119 -6.963134 -8.457857 -14.004270 139.999893
28 139.999893 -0.000030 -0.000119 -6.526242 -9.565401 -10.399510 139.999893
[Rope2_Seg07]
27 139.999893 0.000060 -0.000060 -5.446755 -3.614316 -11.821407 139.999893
28 139.999893 0.000060 -0.000060 -7.754567 -7.251241 -12.517707 139.999893
[Rope2_Seg09]
27 121.338966 0.000089 -0.000060 33.793236 -1.359788 -0.847141 121.338966
28 121.338966 0.000089 -0.000060 33.793236 -1.359788 -0.847141 121.338966
[R_mid_hand01]
27 104.680779 11.144459 -10.335981 -16.212063 45.237240 70.462845 105.778534
28 104.680779 11.144459 -10.335981 -16.212063 45.237247 70.462852 105.778534
[R_mid_hand02]
27 104.070427 2.443552 8.231699 49.067383 -67.749779 39.286449 104.424065
28 104.070427 2.443552 8.231699 49.067368 -67.749779 39.286465 104.424065
[R_mid_hand03]
27 106.028137 -11.221827 -5.996406 -177.101105 15.551026 -76.585571 106.788818
28 106.028137 -11.221827 -5.996406 -177.101105 15.551026 -76.585571 106.788818
[spine02]
27 129.756927 0.001550 0.000119 0.534577 -4.024321 -15.406231 129.756927
28 129.756927 0.001550 0.000119 0.530892 -4.024812 -15.347849 129.756927
[spine03]
27 78.613991 0.081702 -4.898997 2.000580 3.780744 18.022308 78.766525
28 78.613983 0.081704 -4.898997 1.998558 3.782681 17.992207 78.766518
[pelvis]
27 169.435242 0.051022 0.000000 -0.070278 -0.177757 17.233160 169.435257
28 169.435242 0.051022 0.000000 -0.070177 -0.177797 17.168129 169.435257
[null_rope03_connect]
27 -1.257226 -2.466202 137.391083 -179.139847 -86.126625 -95.828323 137.418976
28 -1.257226 -2.466202 137.391083 -179.187057 -86.150406 -95.525208 137.418976
[null_rope04_connect]
27 -1.259640 -2.480268 -137.844437 -179.139847 -86.126625 -95.828323 137.872513
28 -1.259640 -2.480268 -137.844437 -179.187057 -86.150406 -95.525208 137.872513
[Rope3_Seg01]
27 0.000000 0.000000 0.000000 -110.741470 -68.528038 69.390999 0.000000
28 0.000000 0.000000 0.000000 -99.818428 -72.030304 57.447849 0.000000
[Rope3_Seg02]
27 139.999924 -0.000119 0.000060 -0.570716 15.265111 -3.004228 139.999924
28 139.999924 -0.000119 0.000060 0.022074 18.262430 -2.023586 139.999924
[Rope3_Seg03]
27 139.999924 -0.000119 0.000119 4.384560 40.672459 -7.195113 139.999924
28 139.999924 -0.000119 0.000119 6.178130 30.823736 -0.590051 139.999924
[Rope3_Seg04]
27 139.999924 0.000119 0.000000 10.883033 36.014145 -12.264823 139.999924
28 139.999924 0.000119 0.000000 10.226415 25.780258 -5.924784 139.999924
[Rope3_Seg05]
27 139.999924 -0.000238 0.000060 5.924349 17.029871 -21.423777 139.999924
28 139.999924 -0.000238 0.000060 7.344923 25.627401 -30.482285 139.999924
[Rope3_Seg06]
27 139.999893 -0.000119 -0.000060 1.971095 9.390753 -16.571735 139.999893
28 139.999893 -0.000119 -0.000060 1.230702 11.036726 -20.507622 139.999893
[Rope3_Seg07]
27 139.999771 0.000060 -0.000119 0.652630 4.620347 -8.081579 139.999771
28 139.999771 0.000060 -0.000119 0.192673 4.364691 -8.124539 139.999771
[Rope3_Seg08]
27 139.999985 -0.000060 0.000000 0.455764 2.324834 -4.209620 139.999985
28 139.999985 -0.000060 0.000000 0.241674 2.083581 -3.946995 139.999985
[Rope3_Seg09]
27 90.185997 -0.000179 -0.000060 89.793228 -1.359877 -0.847183 90.185997
28 90.185997 -0.000179 -0.000060 89.793228 -1.359877 -0.847183 90.185997
[R_rear_hand01]
27 103.366196 -6.073594 -10.757982 -177.714203 24.565960 -73.910950 104.101845
28 103.366196 -6.073594 -10.757982 -177.714203 24.565966 -73.910950 104.101845
[R_rear_hand02]
27 100.509819 12.039542 -7.992327 -12.874833 36.868488 72.167213 101.543350
28 100.509819 12.039542 -7.992327 -12.874833 36.868488 72.167213 101.543350
[R_rear_hand03]
27 101.539970 5.215704 5.435467 71.484619 -71.816628 21.513792 101.819031
28 101.539970 5.215704 5.435467 71.484573 -71.816597 21.513800 101.819031
[Rope4_Seg01]
27 0.000010 0.000038 -0.000114 -18.869959 -45.543549 162.242432 0.000121
28 0.000010 0.000038 -0.000114 -19.193567 -38.928581 162.894135 0.000121
[Rope4_Seg02]
27 139.999985 0.000060 0.000119 -8.733139 9.925816 18.823431 139.999985
28 139.999985 0.000060 0.000119 -12.530765 10.044550 19.549503 139.999985
[Rope4_Seg03]
27 139.999924 0.000000 -0.000238 -9.675204 9.941474 12.941662 139.999924
28 139.999924 0.000000 -0.000238 -7.174861 9.842711 9.432800 139.999924
[Rope4_Seg04]
27 139.999985 0.000000 0.000119 -28.449997 -2.475335 17.030951 139.999985
28 139.999985 0.000000 0.000119 -38.200150 -6.592226 19.724138 139.999985
[Rope4_Seg05]
27 139.999802 -0.000060 -0.000119 -30.382431 -27.285402 19.816658 139.999802
28 139.999802 -0.000060 -0.000119 -25.306025 -34.845993 15.215234 139.999802
[Rope4_Seg06]
27 139.999924 0.000000 0.000060 -4.965668 -16.770452 3.020957 139.999924
28 139.999924 0.000000 0.000060 -2.323586 -14.662390 0.669732 139.999924
[Rope4_Seg07]
27 139.999802 0.000000 0.000000 -1.168242 -8.304770 1.018782 139.999802
28 139.999802 0.000000 0.000000 -0.414842 -7.030022 0.165889 139.999802
[Rope4_Seg08]
27 139.999924 0.000000 0.000119 -1.876648 -4.394344 0.449872 139.999924
28 139.999924 0.000000 0.000119 -1.598575 -3.707799 0.058355 139.999924
[Rope4_Seg09]
27 90.185791 0.000060 0.000060 -135.617828 2.228885 0.850567 90.185791
28 90.185791 0.000060 0.000060 -135.617828 2.228885 0.850567 90.185791
[L_rear_hand01]
27 101.696655 -8.392275 -7.654577 -12.874834 -36.868492 107.832764 102.329041
28 101.696655 -8.392275 -7.654577 -12.874829 -36.868488 107.832764 102.329041
[L_rear_hand02]
27 102.726799 -1.568258 5.773216 71.484581 71.816643 158.486160 102.900848
28 102.726799 -1.568258 5.773216 71.484581 71.816628 158.486160 102.900848
[L_rear_hand03]
27 104.552910 9.721220 -10.420293 -177.714203 -24.565960 -106.089035 105.519653
28 104.552910 9.721220 -10.420293 -177.714203 -24.565960 -106.089035 105.519653
